<svg width="31" height="29" xmlns="http://www.w3.org/2000/svg" clip-rule="evenodd" fill-rule="evenodd" image-rendering="optimizeQuality" text-rendering="geometricPrecision" shape-rendering="geometricPrecision">

 <g>
  <title>Layer 1</title>
  <path stroke="null" id="svg_1" d="m25.20008,5.88877c-1.7572,-1.03182 -3.02509,-2.6833 -3.42071,-4.60726c-0.08545,-0.41558 -0.13293,-0.8437 -0.13293,-1.28151l-5.60835,0l-0.00949,20.24244c-0.09368,2.26715 -2.16548,4.08623 -4.70506,4.08623c-0.78935,0 -1.53248,-0.17729 -2.187,-0.48798c-1.50083,-0.71087 -2.52819,-2.12748 -2.52819,-3.7573c0,-2.34126 2.11547,-4.24641 4.71456,-4.24641c0.48551,0 0.95076,0.0724 1.39069,0.1961l0,-5.15624c-0.45576,-0.05644 -0.91848,-0.09064 -1.39069,-0.09064c-5.6919,0 -10.3229,4.17002 -10.3229,9.29719c0,3.14505 1.74454,5.92868 4.40755,7.61151c1.67617,1.06089 3.71632,1.68511 5.91598,1.68511c5.69253,0 10.3229,-4.1706 10.3229,-9.29662l0,-10.26516c2.19966,1.42174 4.89496,2.25974 7.80358,2.25974l0,-5.05135c-1.56667,0 -3.02572,-0.419 -4.24994,-1.13785z" fill-rule="nonzero"/>
 </g>
</svg>